<svg width="341" height="364" viewBox="0 0 341 364" fill="none" xmlns="http://www.w3.org/2000/svg">
<g style="mix-blend-mode:darken">
<rect x="5" y="4" width="300" height="279" fill="white"/>
<rect x="5" y="4" width="300" height="279" stroke="#110E0E" stroke-width="8"/>
</g>
<path d="M50.208 37.996C49.168 36.8173 47.7813 35.864 46.048 35.136C44.3147 34.408 42.3387 34.044 40.12 34.044C36.8613 34.044 34.4867 34.668 32.996 35.916C31.5053 37.1293 30.76 38.7933 30.76 40.908C30.76 42.0173 30.9507 42.936 31.332 43.664C31.748 44.3573 32.372 44.964 33.204 45.484C34.036 46.004 35.0933 46.4547 36.376 46.836C37.6933 47.2173 39.236 47.5987 41.004 47.98C42.98 48.396 44.748 48.864 46.308 49.384C47.9027 49.904 49.2547 50.5627 50.364 51.36C51.4733 52.1227 52.3227 53.0587 52.912 54.168C53.5013 55.2773 53.796 56.664 53.796 58.328C53.796 60.0267 53.4667 61.5 52.808 62.748C52.1493 63.996 51.2307 65.036 50.052 65.868C48.8733 66.7 47.4693 67.324 45.84 67.74C44.2107 68.1213 42.4253 68.312 40.484 68.312C34.764 68.312 29.824 66.5267 25.664 62.956L27.484 59.992C28.1427 60.6853 28.9227 61.344 29.824 61.968C30.76 62.592 31.7827 63.1467 32.892 63.632C34.036 64.0827 35.2493 64.4467 36.532 64.724C37.8147 64.9667 39.1667 65.088 40.588 65.088C43.5347 65.088 45.8227 64.568 47.452 63.528C49.116 62.4533 49.948 60.8413 49.948 58.692C49.948 57.548 49.7053 56.5947 49.22 55.832C48.7693 55.0347 48.076 54.3587 47.14 53.804C46.204 53.2147 45.0427 52.712 43.656 52.296C42.2693 51.88 40.6573 51.464 38.82 51.048C36.8787 50.5973 35.18 50.1293 33.724 49.644C32.268 49.1587 31.0373 48.552 30.032 47.824C29.0267 47.096 28.264 46.2293 27.744 45.224C27.2587 44.184 27.016 42.9187 27.016 41.428C27.016 39.7293 27.328 38.2213 27.952 36.904C28.6107 35.552 29.5293 34.4427 30.708 33.576C31.8867 32.6747 33.2733 31.9987 34.868 31.548C36.4627 31.0627 38.2307 30.82 40.172 30.82C42.6333 30.82 44.8173 31.2013 46.724 31.964C48.6653 32.692 50.416 33.732 51.976 35.084L50.208 37.996ZM66.2979 68.52C65.0153 68.52 63.8193 68.312 62.7099 67.896C61.6353 67.4453 60.6819 66.8387 59.8499 66.076C59.0526 65.3133 58.4286 64.4293 57.9779 63.424C57.5273 62.384 57.3019 61.2747 57.3019 60.096C57.3019 58.9173 57.5793 57.8253 58.1339 56.82C58.6886 55.8147 59.4686 54.948 60.4739 54.22C61.4793 53.492 62.6753 52.9373 64.0619 52.556C65.4486 52.14 66.9739 51.932 68.6379 51.932C70.0246 51.932 71.4286 52.0533 72.8499 52.296C74.2713 52.5387 75.5366 52.8853 76.6459 53.336V50.892C76.6459 48.5 75.9699 46.6107 74.6179 45.224C73.2659 43.8027 71.3939 43.092 69.0019 43.092C67.6153 43.092 66.1939 43.3693 64.7379 43.924C63.2819 44.4787 61.8086 45.276 60.3179 46.316L59.0699 43.976C62.5713 41.6187 65.9686 40.44 69.2619 40.44C72.6593 40.44 75.3286 41.3933 77.2699 43.3C79.2113 45.2067 80.1819 47.8413 80.1819 51.204V63.424C80.1819 64.3947 80.6153 64.88 81.4819 64.88V68C80.8926 68.104 80.4419 68.156 80.1299 68.156C79.2286 68.156 78.5179 67.9307 77.9979 67.48C77.5126 67.0293 77.2526 66.4053 77.2179 65.608L77.1139 63.476C75.8659 65.1053 74.2886 66.3533 72.3819 67.22C70.5099 68.0867 68.4819 68.52 66.2979 68.52ZM67.1299 65.816C68.9673 65.816 70.6486 65.4693 72.1739 64.776C73.7339 64.0827 74.9126 63.164 75.7099 62.02C76.0219 61.708 76.2473 61.3787 76.3859 61.032C76.5593 60.6507 76.6459 60.304 76.6459 59.992V55.572C75.4673 55.1213 74.2366 54.7747 72.9539 54.532C71.7059 54.2893 70.4233 54.168 69.1059 54.168C66.6099 54.168 64.5819 54.688 63.0219 55.728C61.4619 56.768 60.6819 58.1373 60.6819 59.836C60.6819 60.668 60.8379 61.448 61.1499 62.176C61.4966 62.904 61.9473 63.5453 62.5019 64.1C63.0913 64.62 63.7846 65.036 64.5819 65.348C65.3793 65.66 66.2286 65.816 67.1299 65.816ZM87.9779 30.04H91.5139V61.864C91.5139 62.8693 91.7912 63.6667 92.3459 64.256C92.9005 64.8107 93.6805 65.088 94.6859 65.088C95.0672 65.088 95.5179 65.036 96.0379 64.932C96.5579 64.828 97.0432 64.6893 97.4939 64.516L98.1179 67.376C97.4592 67.6533 96.6445 67.8787 95.6739 68.052C94.7379 68.2253 93.9232 68.312 93.2299 68.312C91.6005 68.312 90.3179 67.8613 89.3819 66.96C88.4459 66.024 87.9779 64.724 87.9779 63.06V30.04ZM28.628 132V95.08H32.268V128.776H53.588V132H28.628ZM68.7992 132.52C66.8232 132.52 65.0032 132.156 63.3392 131.428C61.7099 130.665 60.2886 129.643 59.0752 128.36C57.8619 127.043 56.9086 125.535 56.2152 123.836C55.5566 122.137 55.2272 120.317 55.2272 118.376C55.2272 116.469 55.5566 114.684 56.2152 113.02C56.9086 111.321 57.8446 109.848 59.0232 108.6C60.2366 107.317 61.6752 106.312 63.3392 105.584C65.0032 104.821 66.8059 104.44 68.7472 104.44C70.7232 104.44 72.5259 104.821 74.1552 105.584C75.8192 106.312 77.2406 107.317 78.4192 108.6C79.5979 109.883 80.5166 111.356 81.1752 113.02C81.8339 114.684 82.1632 116.452 82.1632 118.324C82.1632 118.601 82.1632 118.879 82.1632 119.156C82.1632 119.433 82.1459 119.624 82.1112 119.728H58.9192C59.0232 121.184 59.3526 122.536 59.9072 123.784C60.4966 124.997 61.2419 126.055 62.1432 126.956C63.0446 127.857 64.0672 128.568 65.2112 129.088C66.3899 129.573 67.6379 129.816 68.9552 129.816C69.8219 129.816 70.6886 129.695 71.5552 129.452C72.4219 129.209 73.2192 128.88 73.9472 128.464C74.6752 128.048 75.3339 127.545 75.9232 126.956C76.5126 126.332 76.9632 125.656 77.2752 124.928L80.3432 125.76C79.9272 126.765 79.3379 127.684 78.5752 128.516C77.8126 129.313 76.9286 130.024 75.9232 130.648C74.9179 131.237 73.8086 131.688 72.5952 132C71.3819 132.347 70.1166 132.52 68.7992 132.52ZM78.7832 117.024C78.6792 115.568 78.3326 114.251 77.7432 113.072C77.1886 111.859 76.4606 110.819 75.5592 109.952C74.6926 109.085 73.6699 108.409 72.4912 107.924C71.3472 107.439 70.1166 107.196 68.7992 107.196C67.4819 107.196 66.2339 107.439 65.0552 107.924C63.8766 108.409 62.8366 109.085 61.9352 109.952C61.0686 110.819 60.3579 111.859 59.8032 113.072C59.2832 114.285 58.9712 115.603 58.8672 117.024H78.7832ZM94.4308 132.52C93.1481 132.52 91.9521 132.312 90.8428 131.896C89.7681 131.445 88.8148 130.839 87.9828 130.076C87.1854 129.313 86.5614 128.429 86.1108 127.424C85.6601 126.384 85.4347 125.275 85.4347 124.096C85.4347 122.917 85.7121 121.825 86.2668 120.82C86.8214 119.815 87.6014 118.948 88.6068 118.22C89.6121 117.492 90.8081 116.937 92.1948 116.556C93.5814 116.14 95.1068 115.932 96.7708 115.932C98.1574 115.932 99.5614 116.053 100.983 116.296C102.404 116.539 103.669 116.885 104.779 117.336V114.892C104.779 112.5 104.103 110.611 102.751 109.224C101.399 107.803 99.5268 107.092 97.1348 107.092C95.7481 107.092 94.3268 107.369 92.8708 107.924C91.4148 108.479 89.9414 109.276 88.4508 110.316L87.2028 107.976C90.7041 105.619 94.1014 104.44 97.3948 104.44C100.792 104.44 103.461 105.393 105.403 107.3C107.344 109.207 108.315 111.841 108.315 115.204V127.424C108.315 128.395 108.748 128.88 109.615 128.88V132C109.025 132.104 108.575 132.156 108.263 132.156C107.361 132.156 106.651 131.931 106.131 131.48C105.645 131.029 105.385 130.405 105.351 129.608L105.247 127.476C103.999 129.105 102.421 130.353 100.515 131.22C98.6428 132.087 96.6148 132.52 94.4308 132.52ZM95.2628 129.816C97.1001 129.816 98.7814 129.469 100.307 128.776C101.867 128.083 103.045 127.164 103.843 126.02C104.155 125.708 104.38 125.379 104.519 125.032C104.692 124.651 104.779 124.304 104.779 123.992V119.572C103.6 119.121 102.369 118.775 101.087 118.532C99.8388 118.289 98.5561 118.168 97.2388 118.168C94.7428 118.168 92.7148 118.688 91.1548 119.728C89.5948 120.768 88.8148 122.137 88.8148 123.836C88.8148 124.668 88.9708 125.448 89.2828 126.176C89.6294 126.904 90.0801 127.545 90.6348 128.1C91.2241 128.62 91.9174 129.036 92.7148 129.348C93.5121 129.66 94.3614 129.816 95.2628 129.816ZM129.475 108.028C127.083 108.097 125.003 108.756 123.235 110.004C121.467 111.252 120.219 112.968 119.491 115.152V132H115.955V104.908H119.283V111.408C120.288 109.328 121.64 107.699 123.339 106.52C125.037 105.341 126.857 104.752 128.799 104.752C129.076 104.752 129.301 104.769 129.475 104.804V108.028ZM156.961 132H153.425V116.868C153.425 113.644 152.94 111.304 151.969 109.848C151.033 108.392 149.577 107.664 147.601 107.664C146.561 107.664 145.521 107.855 144.481 108.236C143.441 108.617 142.47 109.155 141.569 109.848C140.702 110.541 139.922 111.373 139.229 112.344C138.536 113.28 138.033 114.303 137.721 115.412V132H134.185V104.908H137.409V111.044C138.518 109.068 140.096 107.473 142.141 106.26C144.221 105.047 146.474 104.44 148.901 104.44C150.392 104.44 151.657 104.717 152.697 105.272C153.737 105.827 154.569 106.607 155.193 107.612C155.817 108.617 156.268 109.848 156.545 111.304C156.822 112.76 156.961 114.372 156.961 116.14V132ZM173.498 132.52C171.383 132.52 169.32 132.173 167.31 131.48C165.299 130.787 163.566 129.781 162.11 128.464L163.722 126.072C165.247 127.32 166.79 128.256 168.35 128.88C169.944 129.504 171.643 129.816 173.446 129.816C175.63 129.816 177.363 129.383 178.646 128.516C179.963 127.615 180.622 126.349 180.622 124.72C180.622 123.957 180.448 123.333 180.102 122.848C179.755 122.328 179.235 121.877 178.542 121.496C177.883 121.115 177.034 120.785 175.994 120.508C174.988 120.196 173.81 119.884 172.458 119.572C170.898 119.191 169.546 118.809 168.402 118.428C167.258 118.047 166.304 117.613 165.542 117.128C164.814 116.643 164.259 116.053 163.878 115.36C163.531 114.632 163.358 113.731 163.358 112.656C163.358 111.304 163.618 110.108 164.138 109.068C164.692 108.028 165.42 107.179 166.322 106.52C167.258 105.827 168.332 105.307 169.546 104.96C170.794 104.613 172.111 104.44 173.498 104.44C175.578 104.44 177.467 104.787 179.166 105.48C180.864 106.139 182.234 107.023 183.274 108.132L181.558 110.212C180.552 109.172 179.322 108.392 177.866 107.872C176.444 107.352 174.954 107.092 173.394 107.092C172.458 107.092 171.591 107.196 170.794 107.404C169.996 107.577 169.286 107.872 168.662 108.288C168.072 108.704 167.604 109.241 167.258 109.9C166.911 110.524 166.738 111.269 166.738 112.136C166.738 112.864 166.859 113.453 167.102 113.904C167.344 114.355 167.743 114.753 168.298 115.1C168.852 115.412 169.546 115.707 170.378 115.984C171.244 116.227 172.284 116.487 173.498 116.764C175.231 117.18 176.756 117.596 178.074 118.012C179.391 118.428 180.483 118.913 181.35 119.468C182.251 120.023 182.927 120.699 183.378 121.496C183.828 122.293 184.054 123.264 184.054 124.408C184.054 126.904 183.1 128.88 181.194 130.336C179.287 131.792 176.722 132.52 173.498 132.52ZM54.836 162.304H41.68V196H38.04V162.304H24.884V159.08H54.836V162.304ZM65.2409 196.52C63.2649 196.52 61.4622 196.156 59.8329 195.428C58.2035 194.665 56.7822 193.643 55.5689 192.36C54.3902 191.077 53.4715 189.587 52.8129 187.888C52.1542 186.189 51.8249 184.404 51.8249 182.532C51.8249 180.625 52.1542 178.823 52.8129 177.124C53.5062 175.425 54.4422 173.935 55.6209 172.652C56.8342 171.369 58.2555 170.347 59.8849 169.584C61.5142 168.821 63.2995 168.44 65.2409 168.44C67.1822 168.44 68.9675 168.821 70.5969 169.584C72.2609 170.347 73.6822 171.369 74.8609 172.652C76.0742 173.935 77.0102 175.425 77.6689 177.124C78.3622 178.823 78.7089 180.625 78.7089 182.532C78.7089 184.404 78.3795 186.189 77.7209 187.888C77.0622 189.587 76.1262 191.077 74.9129 192.36C73.7342 193.643 72.3129 194.665 70.6489 195.428C69.0195 196.156 67.2169 196.52 65.2409 196.52ZM55.4129 182.584C55.4129 184.109 55.6729 185.531 56.1929 186.848C56.7129 188.131 57.4062 189.275 58.2729 190.28C59.1742 191.251 60.2142 192.013 61.3929 192.568C62.6062 193.123 63.8889 193.4 65.2409 193.4C66.5929 193.4 67.8582 193.123 69.0369 192.568C70.2502 191.979 71.3075 191.199 72.2089 190.228C73.1102 189.223 73.8209 188.061 74.3409 186.744C74.8609 185.427 75.1209 184.005 75.1209 182.48C75.1209 180.989 74.8609 179.585 74.3409 178.268C73.8209 176.916 73.1102 175.755 72.2089 174.784C71.3075 173.779 70.2502 172.999 69.0369 172.444C67.8582 171.855 66.5929 171.56 65.2409 171.56C63.8889 171.56 62.6235 171.855 61.4449 172.444C60.2662 172.999 59.2262 173.779 58.3249 174.784C57.4235 175.789 56.7129 176.968 56.1929 178.32C55.6729 179.637 55.4129 181.059 55.4129 182.584ZM26.184 241.28C26.184 239.061 26.5653 236.86 27.328 234.676C28.1253 232.457 29.2693 230.481 30.76 228.748C32.2507 227.015 34.088 225.611 36.272 224.536C38.456 223.427 40.9347 222.872 43.708 222.872C47.0013 222.872 49.8093 223.617 52.132 225.108C54.4893 226.599 56.2227 228.54 57.332 230.932L54.472 232.7C53.8827 231.487 53.1547 230.464 52.288 229.632C51.456 228.8 50.5547 228.124 49.584 227.604C48.6133 227.084 47.608 226.72 46.568 226.512C45.528 226.269 44.5053 226.148 43.5 226.148C41.2813 226.148 39.3227 226.599 37.624 227.5C35.9253 228.401 34.4867 229.58 33.308 231.036C32.164 232.492 31.2973 234.139 30.708 235.976C30.1187 237.779 29.824 239.616 29.824 241.488C29.824 243.533 30.1707 245.492 30.864 247.364C31.592 249.236 32.5627 250.9 33.776 252.356C35.024 253.777 36.48 254.921 38.144 255.788C39.8427 256.62 41.68 257.036 43.656 257.036C44.696 257.036 45.7533 256.915 46.828 256.672C47.9373 256.395 48.9947 255.979 50 255.424C51.04 254.835 51.9933 254.124 52.86 253.292C53.7267 252.425 54.4547 251.385 55.044 250.172L58.06 251.732C57.4707 253.119 56.6387 254.349 55.564 255.424C54.4893 256.464 53.2933 257.348 51.976 258.076C50.6587 258.804 49.2547 259.359 47.764 259.74C46.308 260.121 44.8693 260.312 43.448 260.312C40.9173 260.312 38.5947 259.757 36.48 258.648C34.3653 257.539 32.5453 256.1 31.02 254.332C29.4947 252.529 28.2987 250.501 27.432 248.248C26.6 245.96 26.184 243.637 26.184 241.28ZM75.0924 260.52C73.1164 260.52 71.3138 260.156 69.6844 259.428C68.0551 258.665 66.6338 257.643 65.4204 256.36C64.2418 255.077 63.3231 253.587 62.6644 251.888C62.0058 250.189 61.6764 248.404 61.6764 246.532C61.6764 244.625 62.0058 242.823 62.6644 241.124C63.3578 239.425 64.2938 237.935 65.4724 236.652C66.6858 235.369 68.1071 234.347 69.7364 233.584C71.3658 232.821 73.1511 232.44 75.0924 232.44C77.0338 232.44 78.8191 232.821 80.4484 233.584C82.1124 234.347 83.5338 235.369 84.7124 236.652C85.9258 237.935 86.8618 239.425 87.5204 241.124C88.2138 242.823 88.5604 244.625 88.5604 246.532C88.5604 248.404 88.2311 250.189 87.5724 251.888C86.9138 253.587 85.9778 255.077 84.7644 256.36C83.5858 257.643 82.1644 258.665 80.5004 259.428C78.8711 260.156 77.0684 260.52 75.0924 260.52ZM65.2644 246.584C65.2644 248.109 65.5244 249.531 66.0444 250.848C66.5644 252.131 67.2578 253.275 68.1244 254.28C69.0258 255.251 70.0658 256.013 71.2444 256.568C72.4578 257.123 73.7404 257.4 75.0924 257.4C76.4444 257.4 77.7098 257.123 78.8884 256.568C80.1018 255.979 81.1591 255.199 82.0604 254.228C82.9618 253.223 83.6724 252.061 84.1924 250.744C84.7124 249.427 84.9724 248.005 84.9724 246.48C84.9724 244.989 84.7124 243.585 84.1924 242.268C83.6724 240.916 82.9618 239.755 82.0604 238.784C81.1591 237.779 80.1018 236.999 78.8884 236.444C77.7098 235.855 76.4444 235.56 75.0924 235.56C73.7404 235.56 72.4751 235.855 71.2964 236.444C70.1178 236.999 69.0778 237.779 68.1764 238.784C67.2751 239.789 66.5644 240.968 66.0444 242.32C65.5244 243.637 65.2644 245.059 65.2644 246.584ZM105.602 260.52C103.73 260.52 101.997 260.139 100.402 259.376C98.8076 258.579 97.4382 257.539 96.2942 256.256C95.1502 254.973 94.2489 253.5 93.5902 251.836C92.9662 250.137 92.6542 248.369 92.6542 246.532C92.6542 244.625 92.9662 242.823 93.5902 241.124C94.2142 239.391 95.0636 237.883 96.1382 236.6C97.2476 235.317 98.5476 234.312 100.038 233.584C101.564 232.821 103.228 232.44 105.03 232.44C107.318 232.44 109.346 233.047 111.114 234.26C112.882 235.439 114.269 236.877 115.274 238.576V222.04H118.81V255.424C118.81 256.395 119.226 256.88 120.058 256.88V260C119.538 260.104 119.122 260.156 118.81 260.156C117.978 260.156 117.25 259.896 116.626 259.376C116.002 258.821 115.69 258.163 115.69 257.4V254.748C114.616 256.516 113.16 257.92 111.322 258.96C109.485 260 107.578 260.52 105.602 260.52ZM106.382 257.4C107.249 257.4 108.168 257.227 109.138 256.88C110.144 256.533 111.08 256.065 111.946 255.476C112.813 254.852 113.541 254.141 114.13 253.344C114.754 252.512 115.136 251.628 115.274 250.692V242.32C114.928 241.384 114.425 240.517 113.766 239.72C113.108 238.888 112.345 238.16 111.478 237.536C110.646 236.912 109.745 236.427 108.774 236.08C107.804 235.733 106.85 235.56 105.914 235.56C104.458 235.56 103.141 235.872 101.962 236.496C100.784 237.12 99.7609 237.952 98.8942 238.992C98.0622 239.997 97.4209 241.159 96.9702 242.476C96.5196 243.793 96.2942 245.145 96.2942 246.532C96.2942 247.988 96.5542 249.375 97.0742 250.692C97.5942 252.009 98.3049 253.171 99.2062 254.176C100.108 255.147 101.165 255.927 102.378 256.516C103.626 257.105 104.961 257.4 106.382 257.4ZM138.522 260.52C136.546 260.52 134.726 260.156 133.062 259.428C131.433 258.665 130.011 257.643 128.798 256.36C127.585 255.043 126.631 253.535 125.938 251.836C125.279 250.137 124.95 248.317 124.95 246.376C124.95 244.469 125.279 242.684 125.938 241.02C126.631 239.321 127.567 237.848 128.746 236.6C129.959 235.317 131.398 234.312 133.062 233.584C134.726 232.821 136.529 232.44 138.47 232.44C140.446 232.44 142.249 232.821 143.878 233.584C145.542 234.312 146.963 235.317 148.142 236.6C149.321 237.883 150.239 239.356 150.898 241.02C151.557 242.684 151.886 244.452 151.886 246.324C151.886 246.601 151.886 246.879 151.886 247.156C151.886 247.433 151.869 247.624 151.834 247.728H128.642C128.746 249.184 129.075 250.536 129.63 251.784C130.219 252.997 130.965 254.055 131.866 254.956C132.767 255.857 133.79 256.568 134.934 257.088C136.113 257.573 137.361 257.816 138.678 257.816C139.545 257.816 140.411 257.695 141.278 257.452C142.145 257.209 142.942 256.88 143.67 256.464C144.398 256.048 145.057 255.545 145.646 254.956C146.235 254.332 146.686 253.656 146.998 252.928L150.066 253.76C149.65 254.765 149.061 255.684 148.298 256.516C147.535 257.313 146.651 258.024 145.646 258.648C144.641 259.237 143.531 259.688 142.318 260C141.105 260.347 139.839 260.52 138.522 260.52ZM148.506 245.024C148.402 243.568 148.055 242.251 147.466 241.072C146.911 239.859 146.183 238.819 145.282 237.952C144.415 237.085 143.393 236.409 142.214 235.924C141.07 235.439 139.839 235.196 138.522 235.196C137.205 235.196 135.957 235.439 134.778 235.924C133.599 236.409 132.559 237.085 131.658 237.952C130.791 238.819 130.081 239.859 129.526 241.072C129.006 242.285 128.694 243.603 128.59 245.024H148.506Z" fill="black"/>
<path d="M10.112 300.28H11.52L21.12 323H19.392L16.224 315.512H5.376L2.208 323H0.448L10.112 300.28ZM15.776 314.168L10.816 302.264L5.76 314.168H15.776ZM48.5245 317.112C48.5245 317.944 48.3645 318.723 48.0445 319.448C47.7245 320.152 47.2872 320.771 46.7325 321.304C46.1778 321.837 45.5272 322.253 44.7805 322.552C44.0338 322.851 43.2445 323 42.4125 323H31.7885V300.28H42.3805C43.1698 300.28 43.8845 300.451 44.5245 300.792C45.1645 301.133 45.7085 301.581 46.1565 302.136C46.6045 302.669 46.9458 303.288 47.1805 303.992C47.4365 304.675 47.5645 305.368 47.5645 306.072C47.5645 307.224 47.2765 308.28 46.7005 309.24C46.1245 310.2 45.3245 310.904 44.3005 311.352C45.6018 311.736 46.6258 312.461 47.3725 313.528C48.1405 314.573 48.5245 315.768 48.5245 317.112ZM46.8925 316.888C46.8925 316.291 46.7858 315.715 46.5725 315.16C46.3592 314.584 46.0605 314.083 45.6765 313.656C45.2925 313.208 44.8338 312.856 44.3005 312.6C43.7885 312.344 43.2338 312.216 42.6365 312.216H33.4205V321.528H42.4125C43.0525 321.528 43.6392 321.4 44.1725 321.144C44.7272 320.888 45.1965 320.547 45.5805 320.12C45.9858 319.672 46.3058 319.171 46.5405 318.616C46.7752 318.061 46.8925 317.485 46.8925 316.888ZM33.4205 301.752V310.84H41.7405C42.3592 310.84 42.9245 310.712 43.4365 310.456C43.9485 310.2 44.3858 309.869 44.7485 309.464C45.1325 309.037 45.4312 308.547 45.6445 307.992C45.8578 307.437 45.9645 306.872 45.9645 306.296C45.9645 305.677 45.8578 305.101 45.6445 304.568C45.4525 304.013 45.1752 303.533 44.8125 303.128C44.4712 302.701 44.0552 302.371 43.5645 302.136C43.0738 301.88 42.5298 301.752 41.9325 301.752H33.4205ZM68.112 321.528V323H52.976V300.28H67.824V301.752H54.608V310.68H66.16V312.088H54.608V321.528H68.112ZM88.837 319.448C86.6397 321.923 84.0903 323.16 81.189 323.16C79.653 323.16 78.2237 322.829 76.901 322.168C75.5997 321.507 74.4797 320.632 73.541 319.544C72.6023 318.456 71.8663 317.219 71.333 315.832C70.7997 314.445 70.533 313.037 70.533 311.608C70.533 310.115 70.789 308.675 71.301 307.288C71.8343 305.901 72.5597 304.675 73.477 303.608C74.4157 302.541 75.525 301.699 76.805 301.08C78.085 300.44 79.4823 300.12 80.997 300.12C82.1277 300.12 83.141 300.248 84.037 300.504C84.9543 300.739 85.765 301.08 86.469 301.528C87.1943 301.955 87.813 302.477 88.325 303.096C88.8583 303.693 89.3063 304.355 89.669 305.08L88.325 305.88C87.557 304.387 86.533 303.309 85.253 302.648C83.9943 301.965 82.565 301.624 80.965 301.624C79.621 301.624 78.405 301.912 77.317 302.488C76.229 303.064 75.301 303.821 74.533 304.76C73.765 305.699 73.1783 306.765 72.773 307.96C72.3677 309.155 72.165 310.381 72.165 311.64C72.165 312.984 72.3997 314.264 72.869 315.48C73.3383 316.675 73.9783 317.731 74.789 318.648C75.621 319.565 76.5917 320.301 77.701 320.856C78.8103 321.389 80.005 321.656 81.285 321.656C82.6717 321.656 83.9837 321.336 85.221 320.696C86.4797 320.056 87.685 319.043 88.837 317.656V313.272H83.685V311.96H90.245V323H88.837V319.448ZM95.0385 323V300.28H96.6705V323H95.0385ZM104.264 303.352V323H102.632V300.28H103.88L119.816 320.28V300.28H121.448V323H119.944L104.264 303.352ZM129.014 303.352V323H127.382V300.28H128.63L144.566 320.28V300.28H146.198V323H144.694L129.014 303.352ZM167.268 321.528V323H152.132V300.28H166.98V301.752H153.764V310.68H165.316V312.088H153.764V321.528H167.268ZM171.726 323V300.28H181.166C182.126 300.28 183.011 300.483 183.822 300.888C184.633 301.293 185.326 301.837 185.902 302.52C186.499 303.181 186.958 303.939 187.278 304.792C187.619 305.624 187.79 306.467 187.79 307.32C187.79 308.152 187.662 308.963 187.406 309.752C187.15 310.52 186.787 311.213 186.318 311.832C185.849 312.451 185.283 312.963 184.622 313.368C183.961 313.773 183.235 314.04 182.446 314.168L188.11 323H186.222L180.718 314.424H173.358V323H171.726ZM173.358 312.92H181.326C182.051 312.92 182.713 312.76 183.31 312.44C183.907 312.12 184.419 311.704 184.846 311.192C185.273 310.659 185.593 310.061 185.806 309.4C186.041 308.717 186.158 308.024 186.158 307.32C186.158 306.595 186.019 305.901 185.742 305.24C185.486 304.557 185.123 303.96 184.654 303.448C184.206 302.936 183.673 302.531 183.054 302.232C182.457 301.912 181.806 301.752 181.102 301.752H173.358V312.92ZM2.976 360V337.28H4.608V358.528H18.176V360H2.976ZM36.7058 358.528V360H21.5698V337.28H36.4178V338.752H23.2018V347.68H34.7537V349.088H23.2018V358.528H36.7058ZM48.2995 337.28H49.7075L59.3075 360H57.5795L54.4115 352.512H43.5635L40.3955 360H38.6355L48.2995 337.28ZM53.9635 351.168L49.0035 339.264L43.9475 351.168H53.9635ZM62.7573 360V337.28H72.1973C73.1573 337.28 74.0426 337.483 74.8533 337.888C75.6639 338.293 76.3573 338.837 76.9333 339.52C77.5306 340.181 77.9893 340.939 78.3093 341.792C78.6506 342.624 78.8213 343.467 78.8213 344.32C78.8213 345.152 78.6933 345.963 78.4373 346.752C78.1813 347.52 77.8186 348.213 77.3493 348.832C76.8799 349.451 76.3146 349.963 75.6533 350.368C74.9919 350.773 74.2666 351.04 73.4773 351.168L79.1413 360H77.2533L71.7493 351.424H64.3893V360H62.7573ZM64.3893 349.92H72.3573C73.0826 349.92 73.7439 349.76 74.3413 349.44C74.9386 349.12 75.4506 348.704 75.8773 348.192C76.3039 347.659 76.6239 347.061 76.8373 346.4C77.0719 345.717 77.1893 345.024 77.1893 344.32C77.1893 343.595 77.0506 342.901 76.7733 342.24C76.5173 341.557 76.1546 340.96 75.6853 340.448C75.2373 339.936 74.7039 339.531 74.0853 339.232C73.4879 338.912 72.8373 338.752 72.1333 338.752H64.3893V349.92ZM85.1705 340.352V360H83.5385V337.28H84.7865L100.723 357.28V337.28H102.355V360H100.851L85.1705 340.352ZM108.289 360V337.28H109.921V360H108.289ZM117.514 340.352V360H115.882V337.28H117.13L133.066 357.28V337.28H134.698V360H133.194L117.514 340.352ZM157.368 356.448C155.171 358.923 152.622 360.16 149.72 360.16C148.184 360.16 146.755 359.829 145.432 359.168C144.131 358.507 143.011 357.632 142.072 356.544C141.134 355.456 140.398 354.219 139.864 352.832C139.331 351.445 139.064 350.037 139.064 348.608C139.064 347.115 139.32 345.675 139.832 344.288C140.366 342.901 141.091 341.675 142.008 340.608C142.947 339.541 144.056 338.699 145.336 338.08C146.616 337.44 148.014 337.12 149.528 337.12C150.659 337.12 151.672 337.248 152.568 337.504C153.486 337.739 154.296 338.08 155 338.528C155.726 338.955 156.344 339.477 156.856 340.096C157.39 340.693 157.838 341.355 158.2 342.08L156.856 342.88C156.088 341.387 155.064 340.309 153.784 339.648C152.526 338.965 151.096 338.624 149.496 338.624C148.152 338.624 146.936 338.912 145.848 339.488C144.76 340.064 143.832 340.821 143.064 341.76C142.296 342.699 141.71 343.765 141.304 344.96C140.899 346.155 140.696 347.381 140.696 348.64C140.696 349.984 140.931 351.264 141.4 352.48C141.87 353.675 142.51 354.731 143.32 355.648C144.152 356.565 145.123 357.301 146.232 357.856C147.342 358.389 148.536 358.656 149.816 358.656C151.203 358.656 152.515 358.336 153.752 357.696C155.011 357.056 156.216 356.043 157.368 354.656V350.272H152.216V348.96H158.776V360H157.368V356.448ZM186.754 338.752H178.434V360H176.802V338.752H168.482V337.28H186.754V338.752ZM198.282 360.16C196.703 360.16 195.263 359.829 193.962 359.168C192.661 358.507 191.541 357.643 190.602 356.576C189.663 355.509 188.938 354.283 188.426 352.896C187.914 351.509 187.658 350.091 187.658 348.64C187.658 347.125 187.925 345.675 188.458 344.288C189.013 342.901 189.759 341.675 190.698 340.608C191.658 339.541 192.789 338.699 194.09 338.08C195.391 337.44 196.799 337.12 198.314 337.12C199.893 337.12 201.333 337.461 202.634 338.144C203.957 338.805 205.077 339.68 205.994 340.768C206.933 341.856 207.658 343.093 208.17 344.48C208.682 345.845 208.938 347.232 208.938 348.64C208.938 350.176 208.661 351.637 208.106 353.024C207.573 354.411 206.826 355.637 205.866 356.704C204.927 357.749 203.807 358.592 202.506 359.232C201.205 359.851 199.797 360.16 198.282 360.16ZM189.29 348.64C189.29 349.941 189.503 351.2 189.93 352.416C190.378 353.611 190.997 354.677 191.786 355.616C192.597 356.533 193.557 357.269 194.666 357.824C195.775 358.379 196.991 358.656 198.314 358.656C199.679 358.656 200.906 358.368 201.994 357.792C203.103 357.216 204.042 356.459 204.81 355.52C205.599 354.56 206.207 353.483 206.634 352.288C207.061 351.093 207.274 349.877 207.274 348.64C207.274 347.339 207.05 346.091 206.602 344.896C206.154 343.68 205.525 342.613 204.714 341.696C203.925 340.757 202.986 340.011 201.898 339.456C200.81 338.901 199.615 338.624 198.314 338.624C196.949 338.624 195.711 338.912 194.602 339.488C193.493 340.064 192.543 340.832 191.754 341.792C190.965 342.731 190.357 343.797 189.93 344.992C189.503 346.187 189.29 347.403 189.29 348.64ZM219.971 348.48C219.971 347.115 220.205 345.76 220.674 344.416C221.165 343.051 221.869 341.835 222.786 340.768C223.704 339.701 224.824 338.837 226.147 338.176C227.491 337.493 229.016 337.152 230.723 337.152C232.749 337.152 234.477 337.621 235.907 338.56C237.336 339.477 238.403 340.661 239.107 342.112L237.763 342.88C237.357 342.091 236.877 341.429 236.323 340.896C235.789 340.363 235.203 339.936 234.562 339.616C233.944 339.275 233.293 339.029 232.611 338.88C231.928 338.731 231.256 338.656 230.595 338.656C229.144 338.656 227.864 338.955 226.755 339.552C225.645 340.128 224.707 340.885 223.939 341.824C223.171 342.763 222.584 343.829 222.179 345.024C221.795 346.197 221.603 347.381 221.603 348.576C221.603 349.92 221.837 351.2 222.307 352.416C222.776 353.632 223.416 354.709 224.227 355.648C225.037 356.565 225.997 357.301 227.107 357.856C228.216 358.411 229.411 358.688 230.691 358.688C231.373 358.688 232.077 358.603 232.803 358.432C233.528 358.261 234.221 357.995 234.883 357.632C235.544 357.269 236.163 356.811 236.739 356.256C237.315 355.68 237.795 355.008 238.179 354.24L239.587 354.912C239.203 355.765 238.68 356.523 238.019 357.184C237.357 357.845 236.621 358.4 235.811 358.848C235 359.296 234.136 359.637 233.219 359.872C232.323 360.085 231.437 360.192 230.563 360.192C229.005 360.192 227.576 359.851 226.275 359.168C224.995 358.485 223.885 357.6 222.947 356.512C222.008 355.403 221.272 354.155 220.739 352.768C220.227 351.36 219.971 349.931 219.971 348.48ZM252.47 360.16C250.891 360.16 249.451 359.829 248.15 359.168C246.848 358.507 245.728 357.643 244.79 356.576C243.851 355.509 243.126 354.283 242.614 352.896C242.102 351.509 241.846 350.091 241.846 348.64C241.846 347.125 242.112 345.675 242.646 344.288C243.2 342.901 243.947 341.675 244.886 340.608C245.846 339.541 246.976 338.699 248.278 338.08C249.579 337.44 250.987 337.12 252.502 337.12C254.08 337.12 255.52 337.461 256.822 338.144C258.144 338.805 259.264 339.68 260.182 340.768C261.12 341.856 261.846 343.093 262.358 344.48C262.87 345.845 263.126 347.232 263.126 348.64C263.126 350.176 262.848 351.637 262.294 353.024C261.76 354.411 261.014 355.637 260.054 356.704C259.115 357.749 257.995 358.592 256.694 359.232C255.392 359.851 253.984 360.16 252.47 360.16ZM243.478 348.64C243.478 349.941 243.691 351.2 244.118 352.416C244.566 353.611 245.184 354.677 245.974 355.616C246.784 356.533 247.744 357.269 248.854 357.824C249.963 358.379 251.179 358.656 252.502 358.656C253.867 358.656 255.094 358.368 256.182 357.792C257.291 357.216 258.23 356.459 258.998 355.52C259.787 354.56 260.395 353.483 260.822 352.288C261.248 351.093 261.462 349.877 261.462 348.64C261.462 347.339 261.238 346.091 260.79 344.896C260.342 343.68 259.712 342.613 258.902 341.696C258.112 340.757 257.174 340.011 256.086 339.456C254.998 338.901 253.803 338.624 252.502 338.624C251.136 338.624 249.899 338.912 248.79 339.488C247.68 340.064 246.731 340.832 245.942 341.792C245.152 342.731 244.544 343.797 244.118 344.992C243.691 346.187 243.478 347.403 243.478 348.64ZM267.507 360V337.28H275.059C276.851 337.28 278.419 337.579 279.763 338.176C281.129 338.773 282.259 339.584 283.155 340.608C284.051 341.632 284.723 342.837 285.171 344.224C285.619 345.589 285.843 347.051 285.843 348.608C285.843 350.336 285.587 351.904 285.075 353.312C284.585 354.699 283.87 355.893 282.931 356.896C281.993 357.877 280.851 358.645 279.507 359.2C278.185 359.733 276.702 360 275.059 360H267.507ZM284.211 348.608C284.211 347.179 284.009 345.867 283.603 344.672C283.198 343.456 282.601 342.411 281.811 341.536C281.043 340.661 280.094 339.979 278.963 339.488C277.833 338.997 276.531 338.752 275.059 338.752H269.139V358.528H275.059C276.553 358.528 277.865 358.283 278.995 357.792C280.147 357.28 281.107 356.576 281.875 355.68C282.643 354.784 283.219 353.739 283.603 352.544C284.009 351.328 284.211 350.016 284.211 348.608ZM305.456 358.528V360H290.32V337.28H305.168V338.752H291.952V347.68H303.504V349.088H291.952V358.528H305.456Z" fill="black"/>
</svg>
